USFL
nRows=318
nColumns=2
inDegrees=yes
endheader
time	tib_ant_r	
2.66112	 36.288478	
2.69438	 36.292839	
2.72765	 36.267944	
2.76091	 36.276530	
2.79418	 36.277057	
2.82744	 36.299989	
2.8607	 36.334596	
2.89397	 36.333613	
2.92723	 36.305996	
2.9605	 36.305026	
2.99376	 36.302463	
3.02702	 36.271401	
3.06029	 36.268767	
3.09355	 36.283231	
3.12682	 36.289708	
3.16008	 36.286345	
3.19334	 36.285715	
3.22661	 36.274537	
3.25987	 36.265973	
3.29314	 36.269426	
3.3264	 36.274381	
3.35966	 36.267664	
3.39293	 36.267738	
3.42619	 36.251287	
3.45946	 36.249949	
3.49272	 36.256405	
3.52598	 36.254947	
3.55925	 36.264315	
3.59251	 36.256894	
3.62578	 36.254816	
3.65904	 36.249207	
3.6923	 36.249653	
3.72557	 36.246420	
3.75883	 36.255362	
3.7921	 36.256659	
3.82536	 36.238803	
3.85862	 36.237267	
3.89189	 36.255761	
3.92515	 36.204380	
3.95842	 36.220471	
3.99168	 36.223602	
4.02494	 36.235582	
4.05821	 36.229940	
4.09147	 36.196348	
4.12474	 36.221595	
4.158	 36.241578	
4.19126	 36.292209	
4.22453	 36.278068	
4.25779	 36.258972	
4.29106	 36.227647	
4.32432	 36.229728	
4.35758	 36.235367	
4.39085	 36.280430	
4.42411	 36.281344	
4.45738	 36.276390	
4.49064	 36.284822	
4.5239	 36.283952	
4.55717	 36.310105	
4.59043	 36.351964	
4.6237	 36.330005	
4.65696	 36.347037	
4.69022	 36.364321	
4.72349	 36.343738	
4.75675	 36.370888	
4.79002	 36.379394	
4.82328	 36.373954	
4.85654	 36.425031	
4.88981	 36.357615	
4.92307	 36.420730	
4.95634	 36.362319	
4.9896	 36.250827	
5.02286	 36.239620	
5.05613	 36.193775	
5.08939	 36.104154	
5.12266	 36.124302	
5.15592	 36.161760	
5.18918	 36.105999	
5.22245	 36.159337	
5.25571	 36.178162	
5.28898	 36.108162	
5.32224	 36.107903	
5.3555	 36.094288	
5.38877	 36.111934	
5.42203	 36.103838	
5.4553	 36.087737	
5.48856	 36.054815	
5.52182	 36.025537	
5.55509	 36.020852	
5.58835	 36.056236	
5.62162	 36.040973	
5.65488	 36.023476	
5.68814	 36.003234	
5.72141	 35.982360	
5.75467	 35.985818	
5.78794	 35.943703	
5.8212	 35.876749	
5.85446	 35.831093	
5.88773	 35.744465	
5.92099	 35.666207	
5.95426	 35.623300	
5.98752	 35.535099	
6.02078	 35.509851	
6.05405	 35.440335	
6.08731	 35.359048	
6.12058	 35.335747	
6.15384	 35.271533	
6.1871	 35.225893	
6.22037	 35.232722	
6.25363	 35.214892	
6.2869	 35.180580	
6.32016	 35.183356	
6.35342	 35.178076	
6.38669	 35.167059	
6.41995	 35.090182	
6.45322	 35.063307	
6.48648	 35.062964	
6.51974	 35.035997	
6.55301	 35.036247	
6.58627	 35.042019	
6.61954	 35.028481	
6.6528	 35.015533	
6.68606	 34.997040	
6.71933	 34.974179	
6.75259	 34.931697	
6.78586	 34.906385	
6.81912	 34.903622	
6.85238	 34.907019	
6.88565	 34.928167	
6.91891	 34.924534	
6.95218	 34.918149	
6.98544	 34.909591	
7.0187	 34.915486	
7.05197	 34.896353	
7.08523	 34.868249	
7.1185	 34.861336	
7.15176	 34.840449	
7.18502	 34.837307	
7.21829	 34.837403	
7.25155	 34.848575	
7.28482	 34.841781	
7.31808	 34.849675	
7.35134	 34.858171	
7.38461	 34.869491	
7.41787	 34.892695	
7.45114	 34.906590	
7.4844	 34.907793	
7.51766	 34.892576	
7.55093	 34.880167	
7.58419	 34.893292	
7.61746	 34.928017	
7.65072	 34.915069	
7.68398	 34.927740	
7.71725	 34.976470	
7.75051	 34.946306	
7.78378	 34.942529	
7.81704	 34.948380	
7.8503	 34.950337	
7.88357	 34.943177	
7.91683	 34.961312	
7.9501	 34.965889	
7.98336	 34.932877	
8.01662	 34.945508	
8.04989	 34.936902	
8.08315	 34.897120	
8.11642	 34.896576	
8.14968	 34.898647	
8.18294	 34.879902	
8.21621	 34.864414	
8.24947	 34.809525	
8.28274	 34.817136	
8.316	 34.799707	
8.34926	 34.810541	
8.38253	 34.811780	
8.41579	 34.808509	
8.44906	 34.806762	
8.48232	 34.815415	
8.51558	 34.764803	
8.54885	 34.749812	
8.58211	 34.737336	
8.61538	 34.670881	
8.64864	 34.676573	
8.6819	 34.652762	
8.71517	 34.650025	
8.74843	 34.641794	
8.7817	 34.649199	
8.81496	 34.657942	
8.84822	 34.659633	
8.88149	 34.659496	
8.91475	 34.660437	
8.94802	 34.663204	
8.98128	 34.676044	
9.01454	 34.688926	
9.04781	 34.682186	
9.08107	 34.700464	
9.11434	 34.723913	
9.1476	 34.664187	
9.18086	 34.675586	
9.21413	 34.712395	
9.24739	 34.699172	
9.28066	 34.733124	
9.31392	 34.731339	
9.34718	 34.721196	
9.38045	 34.705947	
9.41371	 34.717250	
9.44698	 34.695962	
9.48024	 34.721764	
9.5135	 34.687605	
9.54677	 34.657774	
9.58003	 34.661840	
9.6133	 34.642336	
9.64656	 34.634261	
9.67982	 34.604293	
9.71309	 34.669374	
9.74635	 34.698128	
9.77962	 34.733946	
9.81288	 34.753586	
9.84614	 34.766336	
9.87941	 34.738447	
9.91267	 34.722390	
9.94594	 34.761804	
9.9792	 34.760967	
10.0125	 34.760328	
10.0457	 34.780199	
10.079	 34.749344	
10.1123	 34.742655	
10.1455	 34.749994	
10.1788	 34.792236	
10.212	 34.814594	
10.2453	 34.855856	
10.2786	 34.931758	
10.3118	 34.950778	
10.3451	 34.936570	
10.3784	 34.924805	
10.4116	 34.954966	
10.4449	 34.906823	
10.4782	 34.889129	
10.5114	 34.830212	
10.5447	 34.835169	
10.578	 34.869230	
10.6112	 34.860646	
10.6445	 34.902386	
10.6777	 34.936251	
10.711	 34.946750	
10.7443	 35.000857	
10.7775	 35.011287	
10.8108	 34.994981	
10.8441	 35.144894	
10.8773	 35.102767	
10.9106	 35.146802	
10.9439	 35.206370	
10.9771	 35.184520	
11.0104	 35.225684	
11.0436	 35.301128	
11.0769	 35.290716	
11.1102	 35.337604	
11.1434	 35.403527	
11.1767	 35.368258	
11.21	 35.438607	
11.2432	 35.394397	
11.2765	 35.384954	
11.3098	 35.430646	
11.343	 35.418094	
11.3763	 35.419746	
11.4096	 35.454965	
11.4428	 35.457224	
11.4761	 35.464287	
11.5093	 35.480116	
11.5426	 35.483129	
11.5759	 35.522453	
11.6091	 35.508281	
11.6424	 35.515459	
11.6757	 35.532014	
11.7089	 35.550082	
11.7422	 35.547122	
11.7755	 35.575223	
11.8087	 35.579305	
11.842	 35.581752	
11.8752	 35.584352	
11.9085	 35.581243	
11.9418	 35.573300	
11.975	 35.567125	
12.0083	 35.574960	
12.0416	 35.579825	
12.0748	 35.581579	
12.1081	 35.585494	
12.1414	 35.611658	
12.1746	 35.603029	
12.2079	 35.610183	
12.2412	 35.613905	
12.2744	 35.619894	
12.3077	 35.649012	
12.3409	 35.637294	
12.3742	 35.639509	
12.4075	 35.632854	
12.4407	 35.603263	
12.474	 35.588544	
12.5073	 35.589173	
12.5405	 35.570255	
12.5738	 35.573983	
12.6071	 35.578408	
12.6403	 35.570251	
12.6736	 35.576537	
12.7068	 35.580438	
12.7401	 35.581838	
12.7734	 35.577768	
12.8066	 35.578820	
12.8399	 35.597747	
12.8732	 35.604072	
12.9064	 35.605269	
12.9397	 35.600079	
12.973	 35.602459	
13.0062	 35.604255	
13.0395	 35.601563	
13.0728	 35.598807	
13.106	 35.590299	
13.1393	 35.584270	
13.1725	 35.580941	
13.2058	 35.580008	
